<?xml version="1.0" encoding="UTF-8"?>
<svg id="Layer_2" data-name="Layer 2" xmlns="http://www.w3.org/2000/svg" viewBox="0 0 121.9 103.57">
  <defs>
    <style>
      .cls-1 {
        fill: #fff;
      }
    </style>
  </defs>
  <g id="Layer_1-2" data-name="Layer 1">
    <path class="cls-1" d="M93.95,81.16c-3.87,3.42-8.49,5.12-13.87,5.12-7.29,0-13.21-2.69-17.76-8.06-4.55-5.37-6.83-14.39-6.83-27.05,0-11.93,2.31-20.56,6.93-25.89,4.62-5.33,10.65-7.99,18.07-7.99,5.37,0,9.94,1.5,13.7,4.51,3.76,3.01,6.23,7.1,7.41,12.3l20.02-4.78c-2.28-8.02-5.69-14.16-10.25-18.45C103.72,3.62,93.77,0,81.52,0c-14.03,0-25.35,4.61-33.95,13.83-8.61,9.22-12.91,22.17-12.91,38.84,0,15.76,4.28,28.18,12.84,37.27,8.56,9.09,19.49,13.63,32.79,13.63,10.75,0,19.62-2.65,26.61-7.96,6.99-5.31,11.99-13.42,15-24.35l-19.61-6.22c-1.69,7.33-4.46,12.71-8.33,16.12Z"/>
    <path class="cls-1" d="M14.27.89C6.4.89,0,7.29,0,15.16s6.4,14.27,14.27,14.27,14.27-6.4,14.27-14.27S22.13.89,14.27.89ZM14.27,23.37c-4.53,0-8.21-3.68-8.21-8.21s3.68-8.21,8.21-8.21,8.21,3.68,8.21,8.21-3.68,8.21-8.21,8.21Z"/>
  </g>
</svg>