<?xml version="1.0" encoding="UTF-8"?>
<svg id="Layer_2" data-name="Layer 2" xmlns="http://www.w3.org/2000/svg" viewBox="0 0 163.61 155.22">
  <defs>
    <style>
      .cls-1 {
        fill: #fff;
      }
    </style>
  </defs>
  <g id="Layer_1-2" data-name="Layer 1">
    <path class="cls-1" d="M159.83,51.26c-3.15.8-6.42,1.21-9.7,1.21-21.5,0-39-17.5-39-39,0-3.28.41-6.54,1.21-9.7.29-1.12-.08-2.29-.96-3.05-.88-.75-2.09-.94-3.16-.48-9.24,3.95-16.87,11.24-21.28,20.24-4.31-1.72-8.93-2.62-13.69-2.62-6.23,0-12.42,1.61-17.9,4.64-5.18,2.87-9.61,6.94-12.88,11.83-1.24-.23-2.5-.35-3.76-.35-5.33,0-10.36,2.06-14.18,5.79-3.54,3.46-5.67,8.01-6.05,12.9-4.8,1.28-9.19,4.03-12.45,7.81-3.89,4.51-6.04,10.29-6.04,16.26,0,10.16,6.08,19.21,15.48,23.06.75.31,1.57.3,2.32,0,.75-.31,1.32-.9,1.63-1.64.31-.75.3-1.57-.01-2.32-.31-.75-.9-1.32-1.64-1.63-7.12-2.91-11.72-9.76-11.72-17.46,0-9.34,6.68-17.17,15.89-18.62,1.55-.24,2.65-1.61,2.55-3.18-.01-.18-.02-.4-.02-.66,0-7.86,6.39-14.25,14.25-14.25,1.45,0,2.89.22,4.26.65,1.36.43,2.81-.13,3.52-1.36,5.53-9.5,15.79-15.41,26.76-15.41,17.06,0,30.94,13.88,30.94,30.94v.07c0,1.57,1.23,2.89,2.79,3.02,9.73.76,17.36,9.01,17.36,18.79,0,10.4-8.46,18.85-18.85,18.85h-37.9c-1.67,0-3.03,1.36-3.03,3.03s1.36,3.03,3.03,3.03h37.9c12.43,0,22.77-9.16,24.61-21.08,14.73-1.89,27.36-11.41,33.24-25.18.46-1.07.27-2.28-.48-3.16-.75-.88-1.92-1.25-3.05-.96ZM130.3,74.42c-.51-5.46-2.79-10.58-6.55-14.63-3.62-3.89-8.4-6.53-13.58-7.52-.63-9.12-4.59-17.61-11.22-24.02-2.02-1.95-4.23-3.65-6.58-5.07,2.89-5.94,7.4-11,12.98-14.58-.17,1.62-.26,3.25-.26,4.87,0,24.84,20.21,45.05,45.05,45.05,1.63,0,3.27-.09,4.89-.26-5.55,8.71-14.51,14.57-24.72,16.16Z"/>
    <path class="cls-1" d="M64.08,134.97c.43.23.92.35,1.41.35,1.13,0,2.15-.62,2.68-1.61l10.94-20.73c.78-1.48.21-3.31-1.26-4.09-1.48-.78-3.31-.21-4.09,1.26l-10.94,20.73c-.78,1.48-.21,3.31,1.26,4.09Z"/>
    <path class="cls-1" d="M82.76,135.32c1.13,0,2.15-.62,2.68-1.61l10.94-20.73c.78-1.48.21-3.31-1.26-4.09-1.48-.78-3.31-.21-4.09,1.26l-10.94,20.73c-.78,1.48-.21,3.31,1.26,4.09.43.23.92.35,1.41.35Z"/>
    <path class="cls-1" d="M100.04,135.32c1.13,0,2.15-.62,2.68-1.61l10.94-20.73c.78-1.48.21-3.31-1.26-4.09-1.48-.78-3.31-.21-4.09,1.26l-10.94,20.73c-.78,1.48-.21,3.31,1.26,4.09.43.23.92.35,1.41.35Z"/>
    <path class="cls-1" d="M64.88,105.36c-.49-1.07-1.57-1.76-2.75-1.76h-11.44l17.21-28.2c.57-.93.59-2.1.06-3.06-.53-.95-1.55-1.54-2.64-1.54h-22.37c-1.09,0-2.1.59-2.63,1.54l-23.69,41.92c-.53.93-.52,2.09.02,3.01.54.93,1.54,1.5,2.61,1.5h15.43l-14.06,32.21c-.6,1.36-.09,2.99,1.17,3.78.48.3,1.03.46,1.6.46.89,0,1.73-.39,2.31-1.07l38.74-45.56c.76-.9.93-2.16.44-3.23ZM34.37,134.62l7.71-17.66c.41-.94.32-2.01-.24-2.87-.56-.86-1.51-1.37-2.53-1.37h-14.86l20.27-35.87h15.21l-17.21,28.2c-.57.93-.59,2.1-.06,3.06.53.95,1.55,1.54,2.64,1.54h10.29l-21.22,24.96Z"/>
  </g>
</svg>