<?xml version="1.0" encoding="UTF-8"?>
<svg id="Layer_1" xmlns="http://www.w3.org/2000/svg" version="1.1" viewBox="0 0 81 81">
  <!-- Generator: Adobe Illustrator 30.1.0, SVG Export Plug-In . SVG Version: 2.1.1 Build 136)  -->
  <defs>
    <style>
      .st0 {
        fill: none;
        stroke: #fff;
        stroke-linecap: round;
        stroke-linejoin: round;
        stroke-width: 5px;
      }
    </style>
  </defs>
  <path class="st0" d="M58.38,29.29c-.33,0-.66.02-.99.04,0-.11,0-.21,0-.32,0-7.62-6.18-13.8-13.8-13.8-6.99,0-12.76,5.19-13.67,11.93-.41-.07-.83-.1-1.26-.1-4.2,0-7.6,3.4-7.6,7.6,0,.23.01.45.03.67-.47-.07-.95-.11-1.44-.11-5.44,0-9.86,4.41-9.86,9.86s4.41,9.86,9.86,9.86h38.72c7.08,0,12.81-5.74,12.81-12.81s-5.74-12.82-12.81-12.82Z"/>
  <line class="st0" x1="24.21" y1="60.89" x2="20.58" y2="66.54"/>
  <line class="st0" x1="39.39" y1="60.89" x2="35.77" y2="66.54"/>
  <line class="st0" x1="54.58" y1="60.89" x2="50.95" y2="66.54"/>
  <line class="st0" x1="28.25" y1="69.5" x2="24.62" y2="75.15"/>
  <line class="st0" x1="43.43" y1="69.5" x2="39.8" y2="75.15"/>
  <line class="st0" x1="29.65" y1="5.85" x2="29.65" y2="10.02"/>
  <line class="st0" x1="19.89" y1="9.24" x2="21.89" y2="12.72"/>
  <line class="st0" x1="10.13" y1="26.15" x2="14.14" y2="26.15"/>
  <line class="st0" x1="37.4" y1="12.72" x2="39.41" y2="9.24"/>
  <line class="st0" x1="12.06" y1="16" x2="15.68" y2="18.09"/>
  <line class="st0" x1="12.06" y1="36.3" x2="15.68" y2="34.21"/>
  <path class="st0" d="M28.67,27.04c.43,0,.85.04,1.26.1.59-4.37,3.23-8.09,6.92-10.17-1.98-1.56-4.48-2.49-7.2-2.49-6.44,0-11.67,5.22-11.67,11.67,0,3.06,1.18,5.85,3.11,7.93.29-3.94,3.57-7.04,7.58-7.04Z"/>
</svg>