<?xml version="1.0" encoding="UTF-8"?>
<svg id="Layer_2" data-name="Layer 2" xmlns="http://www.w3.org/2000/svg" viewBox="0 0 163.6 168.71">
  <defs>
    <style>
      .cls-1 {
        fill: #fff;
      }
    </style>
  </defs>
  <g id="Layer_1-2" data-name="Layer 1">
    <path class="cls-1" d="M96.34,110.49c-1.48-.78-3.31-.21-4.09,1.26l-13.86,26.26c-.78,1.48-.21,3.31,1.26,4.09.43.23.92.35,1.41.35,1.13,0,2.15-.62,2.68-1.61l13.86-26.26c.78-1.48.21-3.31-1.26-4.09Z"/>
    <path class="cls-1" d="M89.85,166.58c.24.77.76,1.41,1.48,1.78.43.23.92.35,1.41.35,1.13,0,2.15-.62,2.68-1.61l13.86-26.26c.78-1.48.21-3.31-1.26-4.09-1.47-.78-3.31-.21-4.09,1.26l-13.86,26.26c-.38.71-.45,1.53-.22,2.31Z"/>
    <path class="cls-1" d="M140.84,112.68c-1.47-.78-3.31-.21-4.09,1.26l-13.86,26.26c-.38.71-.45,1.53-.21,2.31.24.77.76,1.41,1.48,1.78.43.23.92.35,1.41.35,1.13,0,2.15-.62,2.68-1.61l13.86-26.26c.38-.71.45-1.53.22-2.31-.24-.77-.76-1.41-1.48-1.78Z"/>
    <path class="cls-1" d="M138,43.47c-.64-11.54-5.55-22.3-13.89-30.41C115.46,4.64,104.06,0,92.01,0c-7.8,0-15.56,2.02-22.42,5.86-6.55,3.65-12.13,8.86-16.2,15.1-1.68-.35-3.41-.53-5.14-.53-6.6,0-12.82,2.56-17.52,7.22-4.42,4.38-7.01,10.13-7.35,16.28-6.15,1.52-11.77,4.96-15.93,9.78-4.81,5.57-7.45,12.7-7.45,20.07,0,4.87,1.11,9.54,3.29,13.86.36.72.99,1.26,1.76,1.51.77.25,1.59.19,2.31-.17.72-.36,1.26-.99,1.51-1.76.25-.77.19-1.59-.17-2.31-1.75-3.47-2.64-7.21-2.64-11.13,0-12.24,8.75-22.49,20.81-24.39,1.55-.24,2.65-1.61,2.55-3.18-.02-.25-.02-.54-.02-.88,0-10.4,8.46-18.86,18.86-18.86,1.92,0,3.82.29,5.63.86,1.36.43,2.81-.13,3.52-1.36,7.15-12.29,20.41-19.92,34.61-19.92,22.06,0,40.01,17.95,40.01,40.01v.09c0,1.57,1.23,2.89,2.79,3.02,12.75.99,22.74,11.8,22.74,24.61,0,13.62-11.08,24.69-24.69,24.69h-54.22c-1.67,0-3.03,1.36-3.03,3.03s1.36,3.03,3.03,3.03h54.22c16.95,0,30.74-13.79,30.74-30.74,0-7.79-2.92-15.22-8.22-20.92-4.61-4.97-10.75-8.27-17.38-9.39Z"/>
    <path class="cls-1" d="M3.21,109.23h53.24c.11,0,.21,0,.31-.02,8.4-.34,15.12-7.27,15.12-15.75s-7.07-15.76-15.76-15.76-15.76,7.07-15.76,15.76c0,1.67,1.36,3.03,3.03,3.03s3.03-1.36,3.03-3.03c0-5.36,4.36-9.71,9.71-9.71s9.71,4.36,9.71,9.71-4.36,9.71-9.71,9.71H3.21c-1.67,0-3.03,1.36-3.03,3.03s1.36,3.03,3.03,3.03Z"/>
    <path class="cls-1" d="M28.46,94.48H3.21c-1.67,0-3.03,1.36-3.03,3.03s1.36,3.03,3.03,3.03h25.44c.06,0,.13,0,.19,0,5.58-.2,10.05-4.8,10.05-10.42s-4.68-10.43-10.43-10.43-10.43,4.68-10.43,10.43c0,1.67,1.36,3.03,3.03,3.03s3.03-1.36,3.03-3.03c0-2.42,1.97-4.38,4.38-4.38s4.38,1.96,4.38,4.38-1.97,4.38-4.38,4.38Z"/>
    <path class="cls-1" d="M61.91,124.39c0,3.31-2.7,6.01-6.01,6.01s-6.01-2.7-6.01-6.01c0-1.67-1.36-3.03-3.03-3.03s-3.03,1.36-3.03,3.03c0,6.65,5.41,12.06,12.06,12.06s12.06-5.41,12.06-12.06-5.16-11.8-11.6-12.05c-.08,0-.15-.01-.23-.01H3.53c-1.67,0-3.03,1.36-3.03,3.03s1.36,3.03,3.03,3.03h52.37c3.31,0,6.01,2.7,6.01,6.01Z"/>
  </g>
</svg>