<?xml version="1.0" encoding="UTF-8"?>
<svg id="Layer_2" xmlns="http://www.w3.org/2000/svg" version="1.1" viewBox="0 0 163.6 163.64">
  <!-- Generator: Adobe Illustrator 30.1.0, SVG Export Plug-In . SVG Version: 2.1.1 Build 136)  -->
  <defs>
    <style>
      .st0 {
        fill: #fff;
      }
    </style>
  </defs>
  <path class="st0" d="M34.46,69.85c-3.6,4.53-5.57,10.16-5.57,15.97,0,14.15,11.51,25.66,25.66,25.66h6.06c1.67,0,3.03-1.36,3.03-3.03s-1.36-3.03-3.03-3.03h-6.06c-10.81,0-19.61-8.8-19.61-19.61,0-9.72,6.95-17.86,16.53-19.37,1.55-.24,2.65-1.61,2.55-3.18,0-.19-.02-.42-.02-.69,0-8.19,6.66-14.84,14.84-14.84,1.52,0,3.01.23,4.44.68,1.36.43,2.81-.13,3.52-1.36,5.74-9.86,16.39-15.99,27.78-15.99,17.71,0,32.12,14.41,32.12,32.12v.07c0,1.57,1.23,2.89,2.79,3.02,10.13.79,18.06,9.37,18.06,19.55,0,10.81-8.8,19.61-19.61,19.61h-15.59c-1.67,0-3.03,1.36-3.03,3.03s1.36,3.03,3.03,3.03h15.59c14.15,0,25.66-11.51,25.66-25.66,0-6.5-2.44-12.7-6.86-17.47-3.75-4.03-8.71-6.76-14.08-7.76-.63-9.43-4.72-18.22-11.57-24.85-7.16-6.92-16.58-10.73-26.51-10.73-6.43,0-12.82,1.66-18.49,4.8-5.04,2.79-9.39,6.7-12.7,11.36-3.5-10.11-13.05-17-23.91-17-13.95,0-25.31,11.35-25.31,25.31,0,8.09,3.87,15.63,10.28,20.37h0ZM49.49,30.23c7.75,0,14.63,4.62,17.65,11.54-4.85.39-9.38,2.45-12.91,5.91-3.66,3.58-5.84,8.28-6.22,13.33-3.32.88-6.45,2.43-9.16,4.53-5.35-3.55-8.62-9.57-8.62-16.05,0-10.62,8.64-19.26,19.26-19.26Z"/>
  <path class="st0" d="M49.49,18.38c1.67,0,3.03-1.36,3.03-3.03V3.03c0-1.67-1.36-3.03-3.03-3.03s-3.03,1.36-3.03,3.03v12.33c0,1.67,1.36,3.03,3.03,3.03h0Z"/>
  <path class="st0" d="M23.21,27.49c.57.57,1.33.89,2.14.89s1.57-.31,2.14-.89c.57-.57.89-1.33.89-2.14s-.31-1.57-.89-2.14l-8.72-8.72c-.57-.57-1.33-.89-2.14-.89s-1.57.31-2.14.89c-.57.57-.89,1.33-.89,2.14s.31,1.57.89,2.14c0,0,8.72,8.72,8.72,8.72Z"/>
  <path class="st0" d="M18.38,49.49c0-1.67-1.36-3.03-3.03-3.03H3.03c-1.67,0-3.03,1.36-3.03,3.03s1.36,3.03,3.03,3.03h12.33c1.67,0,3.03-1.36,3.03-3.03h-.01Z"/>
  <path class="st0" d="M18.77,84.48l8.72-8.72c.57-.57.89-1.33.89-2.14s-.32-1.57-.89-2.14-1.33-.89-2.14-.89-1.57.31-2.14.89l-8.72,8.72c-.57.57-.89,1.33-.89,2.14s.31,1.57.89,2.14c.57.57,1.33.89,2.14.89s1.57-.31,2.14-.89Z"/>
  <path class="st0" d="M73.62,28.38c.81,0,1.57-.31,2.14-.89l8.72-8.72c.57-.57.89-1.33.89-2.14s-.31-1.57-.89-2.14c-.57-.57-1.33-.89-2.14-.89s-1.57.31-2.14.89l-8.72,8.72c-.57.57-.89,1.33-.89,2.14s.31,1.57.89,2.14c.57.57,1.33.89,2.14.89Z"/>
</svg>