<?xml version="1.0" encoding="UTF-8"?>
<svg id="Layer_1" xmlns="http://www.w3.org/2000/svg" version="1.1" viewBox="0 0 81 81">
  <!-- Generator: Adobe Illustrator 30.1.0, SVG Export Plug-In . SVG Version: 2.1.1 Build 136)  -->
  <defs>
    <style>
      .st0, .st1 {
        fill: #fff;
      }

      .st1 {
        display: none;
      }
    </style>
  </defs>
  <rect class="st1" x="-10" y="-17.97" width="100.99" height="100"/>
  <g>
    <path class="st0" d="M66.66,25.26c.2.2.4.5.4.9,0,.3-.1.7-.4.9-.2.2-.5.4-.91.4-.71,0-1.31-.6-1.31-1.3,0-.3.1-.7.4-.9.2-.2.5-.4.91-.4.3,0,.71.2.91.4Z"/>
    <path class="st0" d="M59.08,13.96c.2.2.4.5.4.9,0,.3-.1.7-.4.9-.2.2-.5.4-.91.4-.71,0-1.31-.6-1.31-1.3,0-.3.1-.7.4-.9.2-.2.5-.4.91-.4.3.1.71.2.91.4Z"/>
    <path class="st0" d="M54.44,64.86c0,.2-.1.4-.2.6-.2.4-.71.6-1.11.6-.2,0-.4-.1-.61-.2-.61-.4-.81-1.1-.4-1.7.2-.4.61-.6,1.11-.6.2,0,.4.1.61.2.3.3.61.7.61,1.1Z"/>
    <path class="st0" d="M54.03,35.26c.2.2.4.5.4.9,0,.3-.1.7-.4.9-.2.2-.5.4-.91.4-.71,0-1.31-.6-1.31-1.3,0-.3.1-.7.4-.9.2-.2.5-.4.91-.4s.71.2.91.4Z"/>
    <path class="st0" d="M45.55,69.86c0,.2-.1.4-.2.6-.2.4-.71.6-1.11.6-.2,0-.4-.1-.61-.2-.61-.4-.81-1.1-.4-1.7.2-.4.61-.6,1.11-.6.2,0,.4.1.61.2.4.3.61.7.61,1.1Z"/>
    <path class="st0" d="M43.33,64.86c0,.2-.1.4-.2.6-.2.4-.71.6-1.11.6-.2,0-.4-.1-.61-.2-.61-.4-.81-1.1-.4-1.7.2-.4.61-.6,1.11-.6.2,0,.4.1.61.2.3.3.61.7.61,1.1Z"/>
    <path class="st0" d="M34.44,69.86c0,.2-.1.4-.2.6-.2.4-.71.6-1.11.6-.2,0-.4-.1-.61-.2-.61-.4-.81-1.1-.4-1.7.2-.4.71-.6,1.11-.6.2,0,.4.1.61.2.4.3.61.7.61,1.1Z"/>
    <path class="st0" d="M32.22,64.86c0,.2-.1.4-.2.6-.2.4-.71.6-1.11.6-.2,0-.4-.1-.61-.2-.61-.4-.81-1.1-.4-1.7.2-.4.71-.6,1.11-.6.2,0,.4.1.61.2.3.3.61.7.61,1.1Z"/>
    <path class="st0" d="M23.33,69.86c0,.2-.1.4-.2.6-.2.4-.71.6-1.11.6-.2,0-.4-.1-.61-.2-.61-.4-.81-1.1-.4-1.7.2-.4.61-.6,1.11-.6.2,0,.4.1.61.2.4.3.61.7.61,1.1Z"/>
    <path class="st0" d="M21.11,64.86c0,.2-.1.4-.2.6-.2.4-.71.6-1.11.6-.2,0-.4-.1-.61-.2-.61-.4-.81-1.1-.4-1.7.2-.4.61-.6,1.11-.6.2,0,.4.1.61.2.3.3.61.7.61,1.1Z"/>
    <path class="st0" d="M53.02,33.66c-.71,0-1.21-.5-1.21-1.2-.2-5.2-4.54-6.3-4.75-6.3-.71-.2-1.11-.8-.91-1.5.2-.7.81-1.1,1.52-.9.2,0,1.72.4,3.23,1.6,1.51,1.2,3.23,3.3,3.43,7-.1.7-.61,1.2-1.31,1.3h0Z"/>
    <path class="st0" d="M27.77,38.76c-.3,0-.71-.1-.91-.4-2.32-2.6-5.66-2.2-5.86-2.2h-.2c-.71,0-1.31-.6-1.31-1.3s.5-1.2,1.11-1.2c.5-.1,4.85-.4,7.98,3.1.5.5.4,1.3-.1,1.8-.1.1-.4.2-.71.2Z"/>
    <path class="st0" d="M21.61,32.56c-.3,0-.61-.1-.91-.3l-.1-.1c-1.62-2-2.22-4.5-1.92-7s1.62-4.7,3.64-6.2c2.02-1.5,4.44-2.2,6.97-1.9,3.53.4,6.46,2.8,7.67,6,.2.6-.1,1.4-.71,1.6-.61.2-1.41-.1-1.62-.7-.91-2.4-3.03-4.1-5.66-4.4-1.82-.2-3.64.3-5.15,1.4s-2.42,2.7-2.63,4.6c-.2,1.8.3,3.6,1.41,5.1.4.5.4,1.2-.1,1.6-.3.1-.61.3-.91.3Z"/>
    <path class="st0" d="M29.49,16.36h-.2c-.71-.1-1.21-.7-1.11-1.4l.5-3.9c.1-.7.71-1.2,1.41-1.1s1.21.7,1.11,1.4l-.51,3.9c0,.6-.61,1.1-1.21,1.1Z"/>
    <path class="st0" d="M34.94,18.56c-.3,0-.5-.1-.81-.3-.5-.4-.71-1.2-.2-1.8l2.42-3.1c.4-.5,1.21-.7,1.82-.2.5.4.71,1.2.2,1.8l-2.42,3.1c-.2.3-.61.5-1.01.5Z"/>
    <path class="st0" d="M13.94,33.36c-.5,0-1.01-.3-1.21-.8-.3-.6,0-1.4.71-1.6l3.64-1.5c.61-.3,1.41,0,1.62.7.3.6,0,1.4-.71,1.6l-3.64,1.5c-.1.1-.3.1-.4.1Z"/>
    <path class="st0" d="M16.77,26.06h-.2l-3.84-.5c-.71-.1-1.21-.7-1.11-1.4.1-.7.71-1.2,1.41-1.1l3.94.5c.71.1,1.21.7,1.11,1.4-.2.7-.71,1.1-1.31,1.1Z"/>
    <path class="st0" d="M18.99,20.66c-.3,0-.5-.1-.81-.3l-3.13-2.4c-.5-.4-.71-1.2-.2-1.8.4-.5,1.21-.7,1.82-.2l3.13,2.4c.5.4.71,1.2.2,1.8-.3.4-.61.5-1.01.5Z"/>
    <path class="st0" d="M23.63,17.16c-.5,0-1.01-.3-1.21-.8l-1.51-3.6c-.3-.6,0-1.4.71-1.6.61-.3,1.41,0,1.62.7l1.51,3.6c.3.6,0,1.4-.71,1.6,0,0-.2.1-.4.1Z"/>
    <path class="st0" d="M58.58,57.36H23.13c-3.23,0-6.26-1.2-8.48-3.4-2.32-2.2-3.64-5.1-3.74-8.3v-.3c0-5.3,3.64-9.9,8.79-11.4.1-1.1.4-2.2.81-3.2,1.62-3.5,5.15-5.8,9.09-5.8,1.01,0,2.02.1,2.93.4.61-1,1.41-2,2.32-2.9,2.73-2.5,6.26-3.9,10-3.9,7.88,0,14.34,6.3,14.34,14v.9c6.16.6,10.91,5.7,10.91,11.8.1,6.6-4.95,11.9-11.51,12.1h0ZM22.12,34.86s0,.1,0,0c0,.7-.4,1.2-1.01,1.3-4.44.9-7.78,4.7-7.78,9.2v.3c.1,5.1,4.54,9.2,9.7,9.2h35.45c5.05-.2,9.09-4.3,9.09-9.5s-4.34-9.4-9.7-9.4h-.2c-.4,0-.71-.2-1.01-.4-.2-.3-.3-.7-.3-1,.1-.6.2-1.3.2-1.9,0-6.3-5.35-11.5-11.82-11.5-3.13,0-6.06,1.2-8.28,3.3-1.01.9-1.82,2-2.42,3.2-.3.6-1.01.8-1.62.6-.91-.4-2.02-.6-3.03-.6-2.93,0-5.66,1.7-6.87,4.3-.4.9-.61,1.9-.61,2.9q.2-.1.2,0h0Z"/>
    <path class="st0" d="M55.55,62.86c-.3,0-.5-.1-.81-.3-.5-.4-.71-1.2-.2-1.8l1.41-1.8c.4-.5,1.21-.7,1.82-.2.5.4.71,1.2.2,1.8l-1.41,1.8c-.3.4-.61.5-1.01.5Z"/>
    <path class="st0" d="M44.44,62.86c-.3,0-.5-.1-.81-.3-.5-.4-.71-1.2-.2-1.8l1.41-1.8c.4-.5,1.21-.7,1.82-.2.5.4.71,1.2.2,1.8l-1.41,1.8c-.3.4-.61.5-1.01.5Z"/>
    <path class="st0" d="M33.33,62.86c-.3,0-.5-.1-.81-.3-.5-.4-.71-1.2-.2-1.8l1.41-1.8c.4-.5,1.21-.7,1.82-.2.5.4.71,1.2.2,1.8l-1.41,1.8c-.3.4-.61.5-1.01.5Z"/>
    <path class="st0" d="M22.22,62.86c-.3,0-.5-.1-.81-.3-.5-.4-.71-1.2-.2-1.8l1.41-1.8c.4-.5,1.21-.7,1.82-.2.5.4.71,1.2.2,1.8l-1.41,1.8c-.2.4-.61.5-1.01.5Z"/>
    <path class="st0" d="M46.66,67.86c-.3,0-.5-.1-.81-.3-.5-.4-.71-1.2-.2-1.8l1.41-1.8c.4-.5,1.21-.7,1.82-.2.5.4.71,1.2.2,1.8l-1.41,1.8c-.2.4-.61.5-1.01.5Z"/>
    <path class="st0" d="M35.55,67.86c-.3,0-.5-.1-.81-.3-.5-.4-.71-1.2-.2-1.8l1.41-1.8c.4-.5,1.21-.7,1.82-.2.5.4.71,1.2.2,1.8l-1.41,1.8c-.2.4-.61.5-1.01.5Z"/>
    <path class="st0" d="M24.44,67.86c-.3,0-.51-.1-.81-.3-.5-.4-.71-1.2-.2-1.8l1.41-1.8c.4-.5,1.21-.7,1.82-.2.5.4.71,1.2.2,1.8l-1.41,1.8c-.2.4-.61.5-1.01.5Z"/>
  </g>
</svg>