<?xml version="1.0" encoding="UTF-8"?>
<svg id="Layer_2" data-name="Layer 2" xmlns="http://www.w3.org/2000/svg" viewBox="0 0 163.6 172.4">
  <defs>
    <style>
      .cls-1 {
        fill: #fff;
      }
    </style>
  </defs>
  <g id="Layer_1-2" data-name="Layer 1">
    <path class="cls-1" d="M19.11,102.25c.75.31,1.57.3,2.32-.01.75-.31,1.32-.9,1.63-1.64.31-.75.3-1.57-.01-2.32-.31-.75-.9-1.32-1.64-1.63-9.33-3.81-15.35-12.79-15.35-22.87,0-12.24,8.75-22.49,20.81-24.39,1.55-.24,2.65-1.61,2.55-3.18-.02-.25-.02-.54-.02-.88,0-10.4,8.46-18.86,18.86-18.86,1.92,0,3.82.29,5.63.86,1.36.43,2.81-.13,3.52-1.36,7.15-12.29,20.41-19.92,34.61-19.92,22.06,0,40.01,17.95,40.01,40.01v.09c0,1.57,1.23,2.9,2.79,3.02,12.75.99,22.74,11.8,22.74,24.61,0,13.62-11.08,24.69-24.69,24.69h-48.02c-1.67,0-3.03,1.36-3.03,3.03s1.36,3.03,3.03,3.03h48.02c16.95,0,30.74-13.79,30.74-30.74,0-7.79-2.92-15.22-8.22-20.92-4.61-4.97-10.75-8.27-17.38-9.39-.64-11.54-5.55-22.29-13.89-30.41C115.46,4.64,104.06,0,92.01,0c-7.8,0-15.56,2.02-22.42,5.86-6.55,3.65-12.13,8.86-16.2,15.1-1.68-.35-3.41-.53-5.14-.53-6.6,0-12.82,2.56-17.52,7.22-4.42,4.38-7.01,10.13-7.35,16.28-6.15,1.52-11.77,4.96-15.93,9.78-4.81,5.57-7.45,12.7-7.45,20.07,0,12.55,7.5,23.72,19.11,28.47Z"/>
    <path class="cls-1" d="M96.71,113.04c-.72-.38-1.53-.45-2.31-.22-.77.24-1.4.76-1.78,1.48l-13.86,26.26c-.38.71-.45,1.53-.22,2.31.24.77.76,1.41,1.48,1.78.43.23.92.35,1.41.35,1.13,0,2.15-.62,2.68-1.61l13.86-26.26c.38-.71.45-1.53.22-2.31-.24-.77-.76-1.41-1.48-1.78Z"/>
    <path class="cls-1" d="M91.7,170.91c.43.23.92.35,1.41.35,1.13,0,2.15-.62,2.68-1.61l13.86-26.26c.78-1.48.21-3.31-1.26-4.09-.72-.38-1.53-.45-2.31-.22-.77.24-1.4.76-1.78,1.48l-13.86,26.26c-.78,1.48-.21,3.31,1.26,4.09Z"/>
    <path class="cls-1" d="M125.93,147.19c1.13,0,2.15-.62,2.68-1.61l13.86-26.26c.78-1.48.21-3.31-1.26-4.09-.72-.38-1.53-.45-2.31-.21-.77.24-1.4.76-1.78,1.48l-13.86,26.26c-.78,1.48-.21,3.31,1.26,4.09.43.23.92.35,1.41.35Z"/>
    <path class="cls-1" d="M84.59,68.61c-.53-.95-1.55-1.54-2.64-1.54h-28.34c-1.09,0-2.1.59-2.63,1.54l-30.02,53.11c-.53.93-.52,2.09.02,3.01.54.93,1.54,1.5,2.61,1.5h20.78l-18.3,41.94c-.6,1.36-.09,2.99,1.17,3.78.48.3,1.03.46,1.6.46h0c.89,0,1.73-.39,2.31-1.07l49.08-57.72c.76-.9.93-2.16.44-3.23-.49-1.07-1.57-1.76-2.75-1.76h-15.94l22.55-36.96c.57-.93.59-2.1.06-3.06ZM54.01,110.07c-.57.93-.59,2.1-.06,3.06.53.95,1.55,1.54,2.64,1.54h14.78l-31.56,37.12,11.95-27.39c.41-.94.32-2.01-.24-2.87-.56-.86-1.51-1.37-2.53-1.37h-20.21l26.6-47.06h21.18l-22.55,36.96Z"/>
  </g>
</svg>