<?xml version="1.0" encoding="UTF-8"?>
<svg id="Layer_2" data-name="Layer 2" xmlns="http://www.w3.org/2000/svg" viewBox="0 0 163.6 152">
  <defs>
    <style>
      .cls-1 {
        fill: #fff;
      }
    </style>
  </defs>
  <g id="Layer_1-2" data-name="Layer 1">
    <path class="cls-1" d="M30.74,104.52h7.42c1.67,0,3.03-1.36,3.03-3.03s-1.36-3.03-3.03-3.03h-7.42c-13.62,0-24.69-11.08-24.69-24.69,0-12.24,8.75-22.49,20.81-24.39,1.55-.24,2.65-1.61,2.55-3.18-.02-.25-.02-.54-.02-.88,0-10.4,8.46-18.86,18.86-18.86,1.92,0,3.82.29,5.63.86,1.36.43,2.81-.13,3.52-1.36,7.15-12.29,20.41-19.92,34.61-19.92,22.06,0,40.01,17.95,40.01,40.01v.09c0,1.57,1.23,2.89,2.79,3.02,12.75.99,22.74,11.8,22.74,24.61,0,13.62-11.08,24.69-24.69,24.69h-19.09c-1.67,0-3.03,1.36-3.03,3.03s1.36,3.03,3.03,3.03h19.09c16.95,0,30.74-13.79,30.74-30.74,0-7.79-2.92-15.22-8.22-20.92-4.61-4.97-10.75-8.27-17.38-9.39-.64-11.54-5.55-22.29-13.89-30.41C115.46,4.64,104.06,0,92.01,0c-7.8,0-15.56,2.02-22.42,5.86-6.55,3.65-12.13,8.86-16.2,15.1-1.68-.35-3.41-.53-5.14-.53-6.6,0-12.82,2.56-17.52,7.22-4.42,4.38-7.01,10.13-7.35,16.28-6.15,1.52-11.77,4.96-15.93,9.78-4.81,5.57-7.45,12.7-7.45,20.07,0,16.95,13.79,30.74,30.74,30.74Z"/>
    <path class="cls-1" d="M45.69,68.29c-.21.78-.1,1.6.3,2.3.54.93,1.54,1.51,2.62,1.51.53,0,1.05-.14,1.51-.41l10.05-5.8v11.6c0,1.67,1.36,3.03,3.03,3.03s3.03-1.36,3.03-3.03v-11.6l10.05,5.8c.46.27.98.41,1.51.41,1.08,0,2.08-.58,2.62-1.51.4-.7.51-1.52.3-2.3-.21-.78-.71-1.43-1.41-1.84l-10.05-5.8,10.05-5.8c.7-.4,1.2-1.06,1.41-1.84.21-.78.1-1.6-.3-2.3-.4-.7-1.06-1.2-1.84-1.41-.78-.21-1.6-.1-2.3.3l-10.05,5.8v-11.6c0-1.67-1.36-3.03-3.03-3.03s-3.03,1.36-3.03,3.03v11.6l-10.05-5.8c-.7-.4-1.52-.51-2.3-.3-.78.21-1.43.71-1.84,1.41-.4.7-.51,1.52-.3,2.3.21.78.71,1.43,1.41,1.84l10.05,5.8-10.05,5.8c-.7.4-1.2,1.06-1.41,1.84Z"/>
    <path class="cls-1" d="M72.69,124.49c.21-.78.1-1.6-.3-2.3-.4-.7-1.06-1.2-1.84-1.41-.78-.21-1.6-.1-2.3.3l-10.05,5.8v-11.6c0-1.67-1.36-3.03-3.03-3.03s-3.03,1.36-3.03,3.03v11.6l-10.05-5.8c-.7-.4-1.52-.51-2.3-.3-.78.21-1.43.71-1.84,1.41-.4.7-.51,1.52-.3,2.3.21.78.71,1.43,1.41,1.84l10.05,5.8-10.05,5.8c-.7.4-1.2,1.06-1.41,1.84-.21.78-.1,1.6.3,2.3.54.93,1.54,1.51,2.62,1.51.53,0,1.05-.14,1.51-.41l10.05-5.8v11.6c0,1.67,1.36,3.03,3.03,3.03s3.03-1.36,3.03-3.03v-11.6l10.05,5.8c.46.27.98.41,1.51.41,1.08,0,2.08-.58,2.62-1.51.4-.7.51-1.52.3-2.3-.21-.78-.71-1.43-1.41-1.84l-10.05-5.8,10.05-5.8c.7-.4,1.2-1.06,1.41-1.84Z"/>
    <path class="cls-1" d="M104.48,89.37c-.4-.7-1.06-1.2-1.84-1.41-.78-.21-1.6-.1-2.3.3l-10.05,5.8v-11.6c0-1.67-1.36-3.03-3.03-3.03s-3.03,1.36-3.03,3.03v11.6l-10.05-5.8c-.7-.4-1.52-.51-2.3-.3-.78.21-1.43.71-1.84,1.41-.4.7-.51,1.52-.3,2.3.21.78.71,1.43,1.41,1.84l10.05,5.8-10.05,5.8c-.7.4-1.2,1.06-1.41,1.84-.21.78-.1,1.6.3,2.3.54.93,1.54,1.51,2.62,1.51.53,0,1.05-.14,1.51-.41l10.05-5.8v11.6c0,1.67,1.36,3.03,3.03,3.03s3.03-1.36,3.03-3.03v-11.6l10.05,5.8c.46.27.98.41,1.51.41,1.08,0,2.08-.58,2.62-1.51.83-1.44.34-3.3-1.11-4.13l-10.05-5.8,10.05-5.8c1.44-.83,1.94-2.69,1.11-4.13Z"/>
  </g>
</svg>