<?xml version="1.0" encoding="UTF-8"?>
<svg id="Layer_1" xmlns="http://www.w3.org/2000/svg" version="1.1" viewBox="0 0 81 81">
  <!-- Generator: Adobe Illustrator 30.1.0, SVG Export Plug-In . SVG Version: 2.1.1 Build 136)  -->
  <defs>
    <style>
      .st0 {
        fill: #fff;
      }
    </style>
  </defs>
  <path class="st0" d="M65.4,23.46c.03-.28.04-.55.04-.83,0-5.22-4.25-9.48-9.48-9.48-1.79,0-3.5.49-4.98,1.42-.92-5.39-5.86-9.43-11.65-9.11-5.51.28-9.87,4.31-10.59,9.48-.99-.36-2.02-.53-3.06-.53-5.22,0-9.48,4.25-9.48,9.48,0,.11,0,.22.01.34-2.65.72-6.45,2.25-6.44,7.67,0,4.02,3.35,7.47,7.9,7.69l1.39-2.15c-.17,0-.35,0-.48.02h-.34c-3.45,0-6.27-2.49-6.27-5.56,0-3.66,1.99-4.84,5.68-5.76l.83-.31.02-.84-.04-.45c-.03-.21-.06-.43-.06-.65,0-4.01,3.26-7.27,7.27-7.27,1.21,0,2.39.32,3.53.96l1.67.94-.03-1.92c-.08-4.76,3.69-8.68,8.59-8.92h.47c4.82-.01,8.77,3.64,9,8.3.01.17,0,.33-.02.76l-.1,2.83,1.99-2.02c1.38-1.4,3.22-2.18,5.18-2.18,4.01,0,7.28,3.26,7.28,7.27,0,.5-.05.98-.15,1.45l-.23,1.11,1.11.19c2.84.5,4.91,2.7,5.05,5.35.13,2.66-1.7,5.69-4.48,6.56l.74,2.05c3.51-1.17,6.15-4.8,5.95-8.73-.16-3.35-2.5-6.16-5.82-7.17Z"/>
  <path class="st0" d="M22.09,45.87h0c-2.81-3.77-2.63-10.25-2.76-8.18-.35,5.42-2.49,8.18-2.49,8.18h0c-.17.34-.28.71-.28,1.11,0,1.44,1.3,2.6,2.9,2.6s2.9-1.16,2.9-2.6c0-.39-.1-.77-.28-1.11Z"/>
  <path class="st0" d="M35.28,38.57h0c-2.42-3.25-2.26-8.84-2.38-7.05-.3,4.68-2.15,7.05-2.15,7.05h0c-.15.29-.24.62-.24.96,0,1.24,1.12,2.24,2.51,2.24s2.5-1,2.5-2.24c0-.34-.09-.67-.24-.96Z"/>
  <path class="st0" d="M48.98,47.92h0c-1.82-2.43-1.69-6.62-1.78-5.28-.23,3.5-1.61,5.28-1.61,5.28h0c-.11.22-.18.46-.18.72,0,.93.84,1.68,1.88,1.68s1.87-.75,1.87-1.68c0-.26-.07-.5-.18-.72Z"/>
  <path class="st0" d="M55.74,36.79h0c-2.1-2.81-1.96-7.67-2.06-6.11-.27,4.06-1.86,6.11-1.86,6.11h0c-.13.25-.21.53-.21.83,0,1.07.97,1.95,2.17,1.95s2.17-.87,2.17-1.95c0-.3-.08-.58-.21-.83Z"/>
  <polygon class="st0" points="31.55 75.56 31.9 75.02 44.28 55.93 32.25 55.91 42.49 39.57 43.48 39.57 36.55 53.8 49.45 53.86 31.55 75.56"/>
</svg>