<?xml version="1.0" encoding="UTF-8"?>
<svg id="Layer_2" data-name="Layer 2" xmlns="http://www.w3.org/2000/svg" viewBox="0 0 163.6 132.51">
  <defs>
    <style>
      .cls-1 {
        fill: #fff;
      }
    </style>
  </defs>
  <g id="Layer_1-2" data-name="Layer 1">
    <path class="cls-1" d="M130.01,0c-18.52,0-33.6,15.07-33.6,33.6,0,1.67,1.36,3.03,3.03,3.03s3.03-1.36,3.03-3.03c0-15.19,12.36-27.54,27.54-27.54s27.54,12.36,27.54,27.54-12.36,27.54-27.54,27.54H3.03c-1.67,0-3.03,1.36-3.03,3.03s1.36,3.03,3.03,3.03h127.77c.12,0,.23,0,.34-.02,18-.6,32.47-15.43,32.47-33.57S148.53,0,130.01,0Z"/>
    <path class="cls-1" d="M3.03,46.3h61.07c.1,0,.2,0,.3-.02,11.12-.4,20.04-9.57,20.04-20.78s-9.33-20.8-20.8-20.8-20.8,9.33-20.8,20.8c0,1.67,1.36,3.03,3.03,3.03s3.03-1.36,3.03-3.03c0-8.13,6.62-14.75,14.75-14.75s14.75,6.62,14.75,14.75-6.62,14.75-14.75,14.75H3.03c-1.67,0-3.03,1.36-3.03,3.03s1.36,3.03,3.03,3.03Z"/>
    <path class="cls-1" d="M130.36,83.11c-.1-.01-.21-.02-.32-.02H3.81c-1.67,0-3.03,1.36-3.03,3.03s1.36,3.03,3.03,3.03h125.68c10.29,0,18.66,8.37,18.66,18.66s-8.37,18.66-18.66,18.66-18.66-8.37-18.66-18.66c0-1.67-1.36-3.03-3.03-3.03s-3.03,1.36-3.03,3.03c0,13.62,11.08,24.71,24.71,24.71s24.71-11.08,24.71-24.71-10.61-24.23-23.83-24.69Z"/>
  </g>
</svg>